<?xml version="1.0" encoding="UTF-8" ?>
<!DOCTYPE svg PUBLIC "-//W3C//DTD SVG 1.1//EN" "http://www.w3.org/Graphics/SVG/1.1/DTD/svg11.dtd">
<svg xmlns="http://www.w3.org/2000/svg"
    xmlns:xlink="http://www.w3.org/1999/xlink">

    <svg id="home" viewBox="0 0 28 28" fill="none"
        xmlns="http://www.w3.org/2000/svg">
        <path d="M22.6023 7.6921L16.1057 3.14677C14.3349 1.90611 11.6168 1.97378 9.91368 3.2934L4.26303 7.70338C3.13516 8.58312 2.24414 10.3877 2.24414 11.8088V19.5912C2.24414 22.4672 4.57884 24.8132 7.45492 24.8132H19.6134C22.4895 24.8132 24.8242 22.4785 24.8242 19.6024V11.9555C24.8242 10.4328 23.8429 8.56057 22.6023 7.6921ZM14.3801 20.3017C14.3801 20.7642 13.9966 21.1476 13.5342 21.1476C13.0717 21.1476 12.6883 20.7642 12.6883 20.3017V16.9181C12.6883 16.4557 13.0717 16.0722 13.5342 16.0722C13.9966 16.0722 14.3801 16.4557 14.3801 16.9181V20.3017Z" fill="currentColor"/>
    </svg>

    <svg id="user" viewBox="0 0 28 28" fill="none"
        xmlns="http://www.w3.org/2000/svg">
        <path d="M25.1405 14.0001C25.1405 7.78547 20.0763 2.72131 13.8617 2.72131C7.64716 2.72131 2.58301 7.78547 2.58301 14.0001C2.58301 17.2709 3.99285 20.2146 6.22604 22.2786C6.22604 22.2899 6.22604 22.2899 6.21476 22.3012C6.32755 22.414 6.46289 22.5042 6.57568 22.6057C6.64335 22.6621 6.69975 22.7185 6.76742 22.7636C6.97044 22.9328 7.19601 23.0907 7.41031 23.2486C7.48926 23.305 7.55693 23.3501 7.63588 23.4065C7.85018 23.5531 8.07575 23.6885 8.31261 23.8126C8.39156 23.8577 8.48179 23.9141 8.56074 23.9592C8.78631 24.0832 9.02317 24.196 9.2713 24.2975C9.36153 24.3427 9.45176 24.3878 9.54199 24.4216C9.79012 24.5231 10.0383 24.6133 10.2864 24.6923C10.3766 24.7261 10.4668 24.76 10.5571 24.7825C10.8278 24.8615 11.0985 24.9291 11.3691 24.9968C11.4481 25.0194 11.527 25.0419 11.6173 25.0532C11.9331 25.1209 12.2489 25.166 12.576 25.1998C12.6211 25.1998 12.6662 25.2111 12.7113 25.2224C13.0948 25.2562 13.4783 25.2788 13.8617 25.2788C14.2452 25.2788 14.6287 25.2562 15.0009 25.2224C15.046 25.2224 15.0911 25.2111 15.1362 25.1998C15.4633 25.166 15.7791 25.1209 16.0949 25.0532C16.1739 25.0419 16.2528 25.0081 16.3431 24.9968C16.6138 24.9291 16.8957 24.8728 17.1551 24.7825C17.2454 24.7487 17.3356 24.7148 17.4258 24.6923C17.674 24.6021 17.9334 24.5231 18.1702 24.4216C18.2605 24.3878 18.3507 24.3427 18.4409 24.2975C18.6778 24.196 18.9146 24.0832 19.1515 23.9592C19.2417 23.9141 19.3207 23.8577 19.3996 23.8126C19.6252 23.6772 19.8508 23.5531 20.0763 23.4065C20.1553 23.3614 20.223 23.305 20.3019 23.2486C20.5275 23.0907 20.7418 22.9328 20.9448 22.7636C21.0125 22.7072 21.0689 22.6508 21.1365 22.6057C21.2606 22.5042 21.3847 22.4027 21.4974 22.3012C21.4974 22.2899 21.4974 22.2899 21.4862 22.2786C23.7306 20.2146 25.1405 17.2709 25.1405 14.0001ZM19.4334 19.6056C16.3769 17.5529 11.3691 17.5529 8.29005 19.6056C7.79378 19.9327 7.38775 20.3161 7.04939 20.7335C5.33502 18.9965 4.27482 16.6167 4.27482 14.0001C4.27482 8.71032 8.57202 4.41312 13.8617 4.41312C19.1515 4.41312 23.4487 8.71032 23.4487 14.0001C23.4487 16.6167 22.3885 18.9965 20.6741 20.7335C20.347 20.3161 19.9297 19.9327 19.4334 19.6056Z" fill="currentColor"/>
        <path d="M13.8614 8.28174C11.5267 8.28174 9.63184 10.1766 9.63184 12.5113C9.63184 14.8008 11.4252 16.6618 13.805 16.7295C13.8388 16.7295 13.8839 16.7295 13.9065 16.7295C13.929 16.7295 13.9629 16.7295 13.9854 16.7295C13.9967 16.7295 14.008 16.7295 14.008 16.7295C16.2863 16.6506 18.0796 14.8008 18.0909 12.5113C18.0909 10.1766 16.1961 8.28174 13.8614 8.28174Z" fill="currentColor"/>
    </svg>

    <svg id="folder" viewBox="0 0 28 28" fill="none"
        xmlns="http://www.w3.org/2000/svg">
        <path d="M24.9764 12.8722V19.6394C24.9764 24.1509 23.8485 25.2788 19.337 25.2788H8.05831C3.54682 25.2788 2.41895 24.1509 2.41895 19.6394V8.36068C2.41895 3.84919 3.54682 2.72131 8.05831 2.72131H9.75012C11.4419 2.72131 11.8141 3.21758 12.457 4.07476L14.1488 6.33051C14.5774 6.89445 14.8256 7.23281 15.9534 7.23281H19.337C23.8485 7.23281 24.9764 8.36068 24.9764 12.8722Z" fill="currentColor" stroke="currentColor" stroke-width="1.01509" stroke-miterlimit="10"/>
        <path opacity="0.4" d="M9.18652 2.72131H19.3374C21.5931 2.72131 22.721 3.84919 22.721 6.10493V7.6614" stroke="currentColor" stroke-width="1.01509" stroke-miterlimit="10" stroke-linecap="round" stroke-linejoin="round"/>
    </svg>

    <svg id="contact" viewBox="0 0 28 28" fill="none"
        xmlns="http://www.w3.org/2000/svg">
        <path d="M21.1468 16.143H18.9274C18.7934 16.143 18.6624 16.1828 18.551 16.2573L15.8909 18.0378C15.4848 18.3085 15.0111 18.4326 14.5487 18.4326C14.1539 18.4326 13.7592 18.3424 13.3983 18.1393C12.7569 17.8003 12.3165 17.1264 12.1738 16.4077C12.1155 16.1139 11.9252 15.8517 11.647 15.7408C11.0052 15.4851 10.4305 15.1152 9.95826 14.6429C8.98829 13.673 8.45819 12.3082 8.45819 10.7856V6.38689V5.65377C8.45819 5.28003 8.15521 4.97705 7.78146 4.97705H7.33031C4.28506 4.97705 2.25488 6.49968 2.25488 10.0525V16.143C2.25488 19.6958 4.28506 21.2184 7.33031 21.2184H11.5598V24.4329H8.3454C7.88297 24.4329 7.4995 24.8163 7.4995 25.2788C7.4995 25.7412 7.88297 26.1247 8.3454 26.1247H16.4661C16.9285 26.1247 17.312 25.7412 17.312 25.2788C17.312 24.8163 16.9285 24.4329 16.4661 24.4329H13.2516V21.2184H17.4812C20.3256 21.2184 22.2844 19.89 22.5304 16.8196C22.5603 16.447 22.2536 16.143 21.8799 16.143H21.1468Z" fill="currentColor"/>
        <path d="M21.1462 2.72131H13.815C12.1345 2.72131 10.8713 3.5785 10.375 4.97706C10.2284 5.40565 10.1494 5.87936 10.1494 6.3869V10.7856C10.1494 11.8796 10.5103 12.8045 11.1532 13.4474C11.7961 14.0903 12.721 14.4512 13.815 14.4512V16.0189C13.815 16.5942 14.4692 16.9438 14.9542 16.628L18.2137 14.4512H21.1462C21.6537 14.4512 22.1274 14.3722 22.556 14.2256C23.9546 13.7294 24.8118 12.4661 24.8118 10.7856V6.3869C24.8118 4.18755 23.3455 2.72131 21.1462 2.72131ZM14.2323 9.48855C13.7586 9.48855 13.3864 9.10508 13.3864 8.64265C13.3864 8.18022 13.7586 7.79674 14.2323 7.79674C14.706 7.79674 15.0782 8.18022 15.0782 8.64265C15.0782 9.10508 14.706 9.48855 14.2323 9.48855ZM17.4129 9.48855C16.9392 9.48855 16.567 9.10508 16.567 8.64265C16.567 8.18022 16.9505 7.79674 17.4129 7.79674C17.8753 7.79674 18.2588 8.18022 18.2588 8.64265C18.2588 9.10508 17.8753 9.48855 17.4129 9.48855ZM20.5822 9.48855C20.1085 9.48855 19.7363 9.10508 19.7363 8.64265C19.7363 8.18022 20.1198 7.79674 20.5822 7.79674C21.0447 7.79674 21.4282 8.18022 21.4282 8.64265C21.4282 9.10508 21.0447 9.48855 20.5822 9.48855Z" fill="currentColor"/>
        <path d="M24.8118 6.3869V10.7856C24.8118 12.4661 23.9546 13.7294 22.556 14.2256C22.1274 14.3722 21.6537 14.4512 21.1462 14.4512H18.2137L14.9542 16.628C14.4692 16.9438 13.815 16.5942 13.815 16.0189V14.4512C12.721 14.4512 11.7961 14.0903 11.1532 13.4474C10.5103 12.8045 10.1494 11.8796 10.1494 10.7856V6.3869C10.1494 5.87936 10.2284 5.40565 10.375 4.97706C10.8713 3.5785 12.1345 2.72131 13.815 2.72131H21.1462C23.3455 2.72131 24.8118 4.18755 24.8118 6.3869Z" fill="currentColor"/>
    </svg>

    <svg id="pdf" viewBox="0 0 22 26" fill="none"
        xmlns="http://www.w3.org/2000/svg">
        <path d="M21.0305 6.4227C21.2117 6.5936 21.3145 6.82432 21.3145 7.06643V24.6322C21.3145 25.1364 20.8824 25.5437 20.3477 25.5437H1.01172C0.476959 25.5437 0.0449219 25.1364 0.0449219 24.6322V0.933932C0.0449219 0.429775 0.476959 0.0224609 1.01172 0.0224609H13.8429C14.0997 0.0224609 14.3475 0.119305 14.5287 0.290206L21.0305 6.4227ZM19.0848 7.48513L13.3988 2.12454V7.48513H19.0848ZM14.342 16.3509C13.8834 16.3367 13.3958 16.37 12.842 16.4352C12.1078 16.0082 11.6136 15.4218 11.2625 14.5601L11.2948 14.4354L11.3323 14.2878C11.4622 13.7714 11.532 13.3946 11.5528 13.0146C11.5685 12.7278 11.5516 12.4632 11.4975 12.2179C11.3978 11.6884 11.0005 11.3788 10.4999 11.3597C10.0331 11.3418 9.60413 11.5876 9.49445 11.9684C9.3159 12.5842 9.42043 13.3946 9.799 14.7766C9.31681 15.8604 8.67963 17.1311 8.25212 17.8397C7.68141 18.1172 7.23698 18.3695 6.86356 18.6492C6.3711 19.0187 6.06353 19.3984 5.97894 19.7971C5.93785 19.982 5.99979 20.2235 6.14088 20.4215C6.301 20.6459 6.5421 20.7918 6.83123 20.8128C7.56086 20.8661 8.45757 20.1569 9.44763 18.5552C9.54702 18.5239 9.65216 18.4909 9.78057 18.4499L10.1401 18.3353C10.3676 18.263 10.5326 18.2112 10.6957 18.1613C11.4027 17.9443 11.9374 17.8073 12.4238 17.7292C13.2692 18.1559 14.2463 18.4356 14.9043 18.4356C15.4475 18.4356 15.8146 18.1701 15.9472 17.7523C16.0635 17.3854 15.9714 16.9599 15.7212 16.7246C15.4626 16.4851 14.9871 16.3706 14.342 16.3509ZM6.84966 20.0088V19.9985L6.85359 19.9888C6.89779 19.8811 6.95454 19.7783 7.02278 19.6823C7.15209 19.4949 7.33004 19.2978 7.55059 19.0879C7.66902 18.9754 7.79229 18.8657 7.93701 18.7427C7.96933 18.7153 8.17599 18.5419 8.21466 18.5077L8.55213 18.2114L8.30681 18.5797C7.93459 19.1392 7.59802 19.5419 7.3098 19.8045C7.20375 19.9014 7.11039 19.9726 7.03486 20.0184C7.00993 20.0341 6.98354 20.0477 6.95601 20.0589C6.94362 20.0637 6.93274 20.0666 6.92187 20.0674C6.91039 20.0688 6.89872 20.0673 6.88803 20.0632C6.87666 20.0587 6.86695 20.0511 6.86012 20.0414C6.8533 20.0317 6.84966 20.0204 6.84966 20.0088ZM10.6546 13.7914L10.5863 13.9053L10.544 13.7806C10.4504 13.5006 10.3815 13.0787 10.3625 12.6982C10.3407 12.2652 10.3773 12.0055 10.5223 12.0055C10.7259 12.0055 10.8193 12.3131 10.8265 12.7759C10.8332 13.1827 10.7652 13.606 10.6543 13.7914H10.6546ZM10.4791 15.4565L10.5253 15.3412L10.5884 15.4494C10.9416 16.0544 11.4 16.5591 11.9039 16.9109L12.0127 16.9867L11.88 17.0123C11.3867 17.1086 10.9271 17.2533 10.2987 17.4922C10.3643 17.4672 9.64552 17.7446 9.46364 17.8104L9.30502 17.8676L9.38962 17.7287C9.76274 17.1163 10.1075 16.3808 10.4788 15.4565H10.4791ZM15.2412 17.6287C15.0037 17.717 14.4925 17.6381 13.5925 17.2758L13.3641 17.184L13.6118 17.167C14.3158 17.1177 14.8143 17.1541 15.1049 17.2544C15.2288 17.2971 15.3112 17.351 15.3478 17.4125C15.367 17.4416 15.3735 17.4766 15.3658 17.5102C15.3582 17.5437 15.337 17.5731 15.3067 17.5922C15.2875 17.6082 15.2653 17.6205 15.2412 17.6287Z" fill="currentColor"/>
    </svg>

</svg>
