<?xml version="1.0" encoding="UTF-8" ?>
<!DOCTYPE svg PUBLIC "-//W3C//DTD SVG 1.1//EN" "http://www.w3.org/Graphics/SVG/1.1/DTD/svg11.dtd">
<svg xmlns="http://www.w3.org/2000/svg"
     xmlns:xlink="http://www.w3.org/1999/xlink">

    <svg id="home" viewBox="0 0 28 28" fill="none"
         xmlns="http://www.w3.org/2000/svg">
        <path d="M22.6023 7.6921L16.1057 3.14677C14.3349 1.90611 11.6168 1.97378 9.91368 3.2934L4.26303 7.70338C3.13516 8.58312 2.24414 10.3877 2.24414 11.8088V19.5912C2.24414 22.4672 4.57884 24.8132 7.45492 24.8132H19.6134C22.4895 24.8132 24.8242 22.4785 24.8242 19.6024V11.9555C24.8242 10.4328 23.8429 8.56057 22.6023 7.6921ZM14.3801 20.3017C14.3801 20.7642 13.9966 21.1476 13.5342 21.1476C13.0717 21.1476 12.6883 20.7642 12.6883 20.3017V16.9181C12.6883 16.4557 13.0717 16.0722 13.5342 16.0722C13.9966 16.0722 14.3801 16.4557 14.3801 16.9181V20.3017Z"
              fill="currentColor"/>
    </svg>

    <svg id="user" viewBox="0 0 28 28" fill="none"
         xmlns="http://www.w3.org/2000/svg">
        <path d="M25.1405 14.0001C25.1405 7.78547 20.0763 2.72131 13.8617 2.72131C7.64716 2.72131 2.58301 7.78547 2.58301 14.0001C2.58301 17.2709 3.99285 20.2146 6.22604 22.2786C6.22604 22.2899 6.22604 22.2899 6.21476 22.3012C6.32755 22.414 6.46289 22.5042 6.57568 22.6057C6.64335 22.6621 6.69975 22.7185 6.76742 22.7636C6.97044 22.9328 7.19601 23.0907 7.41031 23.2486C7.48926 23.305 7.55693 23.3501 7.63588 23.4065C7.85018 23.5531 8.07575 23.6885 8.31261 23.8126C8.39156 23.8577 8.48179 23.9141 8.56074 23.9592C8.78631 24.0832 9.02317 24.196 9.2713 24.2975C9.36153 24.3427 9.45176 24.3878 9.54199 24.4216C9.79012 24.5231 10.0383 24.6133 10.2864 24.6923C10.3766 24.7261 10.4668 24.76 10.5571 24.7825C10.8278 24.8615 11.0985 24.9291 11.3691 24.9968C11.4481 25.0194 11.527 25.0419 11.6173 25.0532C11.9331 25.1209 12.2489 25.166 12.576 25.1998C12.6211 25.1998 12.6662 25.2111 12.7113 25.2224C13.0948 25.2562 13.4783 25.2788 13.8617 25.2788C14.2452 25.2788 14.6287 25.2562 15.0009 25.2224C15.046 25.2224 15.0911 25.2111 15.1362 25.1998C15.4633 25.166 15.7791 25.1209 16.0949 25.0532C16.1739 25.0419 16.2528 25.0081 16.3431 24.9968C16.6138 24.9291 16.8957 24.8728 17.1551 24.7825C17.2454 24.7487 17.3356 24.7148 17.4258 24.6923C17.674 24.6021 17.9334 24.5231 18.1702 24.4216C18.2605 24.3878 18.3507 24.3427 18.4409 24.2975C18.6778 24.196 18.9146 24.0832 19.1515 23.9592C19.2417 23.9141 19.3207 23.8577 19.3996 23.8126C19.6252 23.6772 19.8508 23.5531 20.0763 23.4065C20.1553 23.3614 20.223 23.305 20.3019 23.2486C20.5275 23.0907 20.7418 22.9328 20.9448 22.7636C21.0125 22.7072 21.0689 22.6508 21.1365 22.6057C21.2606 22.5042 21.3847 22.4027 21.4974 22.3012C21.4974 22.2899 21.4974 22.2899 21.4862 22.2786C23.7306 20.2146 25.1405 17.2709 25.1405 14.0001ZM19.4334 19.6056C16.3769 17.5529 11.3691 17.5529 8.29005 19.6056C7.79378 19.9327 7.38775 20.3161 7.04939 20.7335C5.33502 18.9965 4.27482 16.6167 4.27482 14.0001C4.27482 8.71032 8.57202 4.41312 13.8617 4.41312C19.1515 4.41312 23.4487 8.71032 23.4487 14.0001C23.4487 16.6167 22.3885 18.9965 20.6741 20.7335C20.347 20.3161 19.9297 19.9327 19.4334 19.6056Z"
              fill="currentColor"/>
        <path d="M13.8614 8.28174C11.5267 8.28174 9.63184 10.1766 9.63184 12.5113C9.63184 14.8008 11.4252 16.6618 13.805 16.7295C13.8388 16.7295 13.8839 16.7295 13.9065 16.7295C13.929 16.7295 13.9629 16.7295 13.9854 16.7295C13.9967 16.7295 14.008 16.7295 14.008 16.7295C16.2863 16.6506 18.0796 14.8008 18.0909 12.5113C18.0909 10.1766 16.1961 8.28174 13.8614 8.28174Z"
              fill="currentColor"/>
    </svg>

    <svg id="user_input" viewBox="0 0 24 24" fill="none"
         xmlns="http://www.w3.org/2000/svg">
        <path d="M16 7C16 8.06087 15.5786 9.07828 14.8284 9.82843C14.0783 10.5786 13.0609 11 12 11C10.9391 11 9.92172 10.5786 9.17157 9.82843C8.42143 9.07828 8 8.06087 8 7C8 5.93913 8.42143 4.92172 9.17157 4.17157C9.92172 3.42143 10.9391 3 12 3C13.0609 3 14.0783 3.42143 14.8284 4.17157C15.5786 4.92172 16 5.93913 16 7ZM12 14C10.1435 14 8.36301 14.7375 7.05025 16.0503C5.7375 17.363 5 19.1435 5 21H19C19 19.1435 18.2625 17.363 16.9497 16.0503C15.637 14.7375 13.8565 14 12 14Z"
              stroke="currentColor" stroke-width="2" stroke-linecap="round" stroke-linejoin="round"/>
    </svg>
    <svg id="folder" viewBox="0 0 28 28" fill="none"
         xmlns="http://www.w3.org/2000/svg">
        <path d="M24.9764 12.8722V19.6394C24.9764 24.1509 23.8485 25.2788 19.337 25.2788H8.05831C3.54682 25.2788 2.41895 24.1509 2.41895 19.6394V8.36068C2.41895 3.84919 3.54682 2.72131 8.05831 2.72131H9.75012C11.4419 2.72131 11.8141 3.21758 12.457 4.07476L14.1488 6.33051C14.5774 6.89445 14.8256 7.23281 15.9534 7.23281H19.337C23.8485 7.23281 24.9764 8.36068 24.9764 12.8722Z"
              fill="currentColor" stroke="currentColor" stroke-width="1.01509" stroke-miterlimit="10"/>
        <path opacity="0.4" d="M9.18652 2.72131H19.3374C21.5931 2.72131 22.721 3.84919 22.721 6.10493V7.6614" stroke="currentColor" stroke-width="1.01509"
              stroke-miterlimit="10" stroke-linecap="round" stroke-linejoin="round"/>
    </svg>

    <svg id="contact" viewBox="0 0 28 28" fill="none"
         xmlns="http://www.w3.org/2000/svg">
        <path d="M21.1468 16.143H18.9274C18.7934 16.143 18.6624 16.1828 18.551 16.2573L15.8909 18.0378C15.4848 18.3085 15.0111 18.4326 14.5487 18.4326C14.1539 18.4326 13.7592 18.3424 13.3983 18.1393C12.7569 17.8003 12.3165 17.1264 12.1738 16.4077C12.1155 16.1139 11.9252 15.8517 11.647 15.7408C11.0052 15.4851 10.4305 15.1152 9.95826 14.6429C8.98829 13.673 8.45819 12.3082 8.45819 10.7856V6.38689V5.65377C8.45819 5.28003 8.15521 4.97705 7.78146 4.97705H7.33031C4.28506 4.97705 2.25488 6.49968 2.25488 10.0525V16.143C2.25488 19.6958 4.28506 21.2184 7.33031 21.2184H11.5598V24.4329H8.3454C7.88297 24.4329 7.4995 24.8163 7.4995 25.2788C7.4995 25.7412 7.88297 26.1247 8.3454 26.1247H16.4661C16.9285 26.1247 17.312 25.7412 17.312 25.2788C17.312 24.8163 16.9285 24.4329 16.4661 24.4329H13.2516V21.2184H17.4812C20.3256 21.2184 22.2844 19.89 22.5304 16.8196C22.5603 16.447 22.2536 16.143 21.8799 16.143H21.1468Z"
              fill="currentColor"/>
        <path d="M21.1462 2.72131H13.815C12.1345 2.72131 10.8713 3.5785 10.375 4.97706C10.2284 5.40565 10.1494 5.87936 10.1494 6.3869V10.7856C10.1494 11.8796 10.5103 12.8045 11.1532 13.4474C11.7961 14.0903 12.721 14.4512 13.815 14.4512V16.0189C13.815 16.5942 14.4692 16.9438 14.9542 16.628L18.2137 14.4512H21.1462C21.6537 14.4512 22.1274 14.3722 22.556 14.2256C23.9546 13.7294 24.8118 12.4661 24.8118 10.7856V6.3869C24.8118 4.18755 23.3455 2.72131 21.1462 2.72131ZM14.2323 9.48855C13.7586 9.48855 13.3864 9.10508 13.3864 8.64265C13.3864 8.18022 13.7586 7.79674 14.2323 7.79674C14.706 7.79674 15.0782 8.18022 15.0782 8.64265C15.0782 9.10508 14.706 9.48855 14.2323 9.48855ZM17.4129 9.48855C16.9392 9.48855 16.567 9.10508 16.567 8.64265C16.567 8.18022 16.9505 7.79674 17.4129 7.79674C17.8753 7.79674 18.2588 8.18022 18.2588 8.64265C18.2588 9.10508 17.8753 9.48855 17.4129 9.48855ZM20.5822 9.48855C20.1085 9.48855 19.7363 9.10508 19.7363 8.64265C19.7363 8.18022 20.1198 7.79674 20.5822 7.79674C21.0447 7.79674 21.4282 8.18022 21.4282 8.64265C21.4282 9.10508 21.0447 9.48855 20.5822 9.48855Z"
              fill="currentColor"/>
        <path d="M24.8118 6.3869V10.7856C24.8118 12.4661 23.9546 13.7294 22.556 14.2256C22.1274 14.3722 21.6537 14.4512 21.1462 14.4512H18.2137L14.9542 16.628C14.4692 16.9438 13.815 16.5942 13.815 16.0189V14.4512C12.721 14.4512 11.7961 14.0903 11.1532 13.4474C10.5103 12.8045 10.1494 11.8796 10.1494 10.7856V6.3869C10.1494 5.87936 10.2284 5.40565 10.375 4.97706C10.8713 3.5785 12.1345 2.72131 13.815 2.72131H21.1462C23.3455 2.72131 24.8118 4.18755 24.8118 6.3869Z"
              fill="currentColor"/>
    </svg>

    <svg id="pdf" viewBox="0 0 22 26" fill="none"
         xmlns="http://www.w3.org/2000/svg">
        <path d="M21.0305 6.4227C21.2117 6.5936 21.3145 6.82432 21.3145 7.06643V24.6322C21.3145 25.1364 20.8824 25.5437 20.3477 25.5437H1.01172C0.476959 25.5437 0.0449219 25.1364 0.0449219 24.6322V0.933932C0.0449219 0.429775 0.476959 0.0224609 1.01172 0.0224609H13.8429C14.0997 0.0224609 14.3475 0.119305 14.5287 0.290206L21.0305 6.4227ZM19.0848 7.48513L13.3988 2.12454V7.48513H19.0848ZM14.342 16.3509C13.8834 16.3367 13.3958 16.37 12.842 16.4352C12.1078 16.0082 11.6136 15.4218 11.2625 14.5601L11.2948 14.4354L11.3323 14.2878C11.4622 13.7714 11.532 13.3946 11.5528 13.0146C11.5685 12.7278 11.5516 12.4632 11.4975 12.2179C11.3978 11.6884 11.0005 11.3788 10.4999 11.3597C10.0331 11.3418 9.60413 11.5876 9.49445 11.9684C9.3159 12.5842 9.42043 13.3946 9.799 14.7766C9.31681 15.8604 8.67963 17.1311 8.25212 17.8397C7.68141 18.1172 7.23698 18.3695 6.86356 18.6492C6.3711 19.0187 6.06353 19.3984 5.97894 19.7971C5.93785 19.982 5.99979 20.2235 6.14088 20.4215C6.301 20.6459 6.5421 20.7918 6.83123 20.8128C7.56086 20.8661 8.45757 20.1569 9.44763 18.5552C9.54702 18.5239 9.65216 18.4909 9.78057 18.4499L10.1401 18.3353C10.3676 18.263 10.5326 18.2112 10.6957 18.1613C11.4027 17.9443 11.9374 17.8073 12.4238 17.7292C13.2692 18.1559 14.2463 18.4356 14.9043 18.4356C15.4475 18.4356 15.8146 18.1701 15.9472 17.7523C16.0635 17.3854 15.9714 16.9599 15.7212 16.7246C15.4626 16.4851 14.9871 16.3706 14.342 16.3509ZM6.84966 20.0088V19.9985L6.85359 19.9888C6.89779 19.8811 6.95454 19.7783 7.02278 19.6823C7.15209 19.4949 7.33004 19.2978 7.55059 19.0879C7.66902 18.9754 7.79229 18.8657 7.93701 18.7427C7.96933 18.7153 8.17599 18.5419 8.21466 18.5077L8.55213 18.2114L8.30681 18.5797C7.93459 19.1392 7.59802 19.5419 7.3098 19.8045C7.20375 19.9014 7.11039 19.9726 7.03486 20.0184C7.00993 20.0341 6.98354 20.0477 6.95601 20.0589C6.94362 20.0637 6.93274 20.0666 6.92187 20.0674C6.91039 20.0688 6.89872 20.0673 6.88803 20.0632C6.87666 20.0587 6.86695 20.0511 6.86012 20.0414C6.8533 20.0317 6.84966 20.0204 6.84966 20.0088ZM10.6546 13.7914L10.5863 13.9053L10.544 13.7806C10.4504 13.5006 10.3815 13.0787 10.3625 12.6982C10.3407 12.2652 10.3773 12.0055 10.5223 12.0055C10.7259 12.0055 10.8193 12.3131 10.8265 12.7759C10.8332 13.1827 10.7652 13.606 10.6543 13.7914H10.6546ZM10.4791 15.4565L10.5253 15.3412L10.5884 15.4494C10.9416 16.0544 11.4 16.5591 11.9039 16.9109L12.0127 16.9867L11.88 17.0123C11.3867 17.1086 10.9271 17.2533 10.2987 17.4922C10.3643 17.4672 9.64552 17.7446 9.46364 17.8104L9.30502 17.8676L9.38962 17.7287C9.76274 17.1163 10.1075 16.3808 10.4788 15.4565H10.4791ZM15.2412 17.6287C15.0037 17.717 14.4925 17.6381 13.5925 17.2758L13.3641 17.184L13.6118 17.167C14.3158 17.1177 14.8143 17.1541 15.1049 17.2544C15.2288 17.2971 15.3112 17.351 15.3478 17.4125C15.367 17.4416 15.3735 17.4766 15.3658 17.5102C15.3582 17.5437 15.337 17.5731 15.3067 17.5922C15.2875 17.6082 15.2653 17.6205 15.2412 17.6287Z"
              fill="currentColor"/>
    </svg>

    <!-- <svg id="moon" viewBox="0 0 20 20" fill="none" xmlns="http://www.w3.org/2000/svg">
        <path d="M17.9417 13.275C17.8083 13.05 17.4333 12.7 16.5 12.8667C15.9833 12.9583 15.4583 13 14.9333 12.975C12.9917 12.8917 11.2333 12 10.0083 10.625C8.925 9.41666 8.25833 7.84166 8.25 6.14166C8.25 5.19166 8.43333 4.275 8.80833 3.40833C9.175 2.56666 8.91667 2.125 8.73333 1.94166C8.54167 1.75 8.09167 1.48333 7.20833 1.85C3.8 3.28333 1.69167 6.7 1.94167 10.3583C2.19167 13.8 4.60833 16.7417 7.80833 17.85C8.575 18.1167 9.38333 18.275 10.2167 18.3083C10.35 18.3167 10.4833 18.325 10.6167 18.325C13.4083 18.325 16.025 17.0083 17.675 14.7667C18.2333 13.9917 18.0833 13.5 17.9417 13.275Z" fill="currentColor"/>
    </svg> -->


    <svg id="moon" viewBox="-0.5 0 17 17" version="1.1"
         xmlns="http://www.w3.org/2000/svg"
         xmlns:xlink="http://www.w3.org/1999/xlink" class="si-glyph si-glyph-moon-star">
        <defs>

        </defs>
        <g stroke="none" stroke-width="1" fill="none" fill-rule="evenodd">
            <g transform="translate(0.000000, 1.000000)" fill="#434343">
                <path d="M10.705,12.274 C6.901,12.274 3.818,9.189 3.818,5.386 C3.818,3.242 4.798,1.327 6.334,0.065 C2.748,0.892 0.072,4.099 0.072,7.936 C0.072,12.401 3.691,16.021 8.156,16.021 C11.994,16.021 15.199,13.345 16.027,9.758 C14.764,11.295 12.85,12.274 10.705,12.274 L10.705,12.274 Z"
                      class="si-glyph-fill">

                </path>
                <path d="M12.719,0.021 L13.744,2.224 L16.037,2.576 L14.379,4.291 L14.77,6.711 L12.719,5.568 L10.668,6.711 L11.059,4.291 L9.398,2.576 L11.692,2.224 L12.719,0.021 Z"
                      class="si-glyph-fill">

                </path>
            </g>
        </g>
    </svg>


    <svg id="globe" fill="currentColor" viewBox="0 0 32 32" version="1.1"
         xmlns="http://www.w3.org/2000/svg">
        <path d="M22.658 10.988h5.172c0.693 1.541 1.107 3.229 1.178 5.012h-5.934c-0.025-1.884-0.181-3.544-0.416-5.012zM20.398 3.896c2.967 1.153 5.402 3.335 6.928 6.090h-4.836c-0.549-2.805-1.383-4.799-2.092-6.090zM16.068 9.986v-6.996c1.066 0.047 2.102 0.216 3.092 0.493 0.75 1.263 1.719 3.372 2.33 6.503h-5.422zM9.489 22.014c-0.234-1.469-0.396-3.119-0.421-5.012h5.998v5.012h-5.577zM9.479 10.988h5.587v5.012h-6.004c0.025-1.886 0.183-3.543 0.417-5.012zM11.988 3.461c0.987-0.266 2.015-0.435 3.078-0.469v6.994h-5.422c0.615-3.148 1.591-5.265 2.344-6.525zM3.661 9.986c1.551-2.8 4.062-4.993 7.096-6.131-0.715 1.29-1.559 3.295-2.114 6.131h-4.982zM8.060 16h-6.060c0.066-1.781 0.467-3.474 1.158-5.012h5.316c-0.233 1.469-0.39 3.128-0.414 5.012zM8.487 22.014h-5.29c-0.694-1.543-1.139-3.224-1.204-5.012h6.071c0.024 1.893 0.188 3.541 0.423 5.012zM8.651 23.016c0.559 2.864 1.416 4.867 2.134 6.142-3.045-1.133-5.557-3.335-7.11-6.142h4.976zM15.066 23.016v6.994c-1.052-0.033-2.067-0.199-3.045-0.46-0.755-1.236-1.736-3.363-2.356-6.534h5.401zM21.471 23.016c-0.617 3.152-1.592 5.271-2.344 6.512-0.979 0.271-2.006 0.418-3.059 0.465v-6.977h5.403zM16.068 17.002h5.998c-0.023 1.893-0.188 3.542-0.422 5.012h-5.576v-5.012zM22.072 16h-6.004v-5.012h5.586c0.235 1.469 0.393 3.126 0.418 5.012zM23.070 17.002h5.926c-0.066 1.787-0.506 3.468-1.197 5.012h-5.152c0.234-1.471 0.398-3.119 0.423-5.012zM27.318 23.016c-1.521 2.766-3.967 4.949-6.947 6.1 0.715-1.276 1.561-3.266 2.113-6.1h4.834z"></path>
    </svg>


    <svg id="lang" viewBox="0 0 24 24" fill="none"
         xmlns="http://www.w3.org/2000/svg">
        <path d="M2 12C2 17.5228 6.47715 22 12 22C17.5228 22 22 17.5228 22 12C22 6.47715 17.5228 2 12 2C6.47715 2 2 6.47715 2 12Z" stroke="currentColor"
              stroke-width="1.5" stroke-linecap="round" stroke-linejoin="round"/>
        <path d="M13 2.04932C13 2.04932 16 5.99994 16 11.9999C16 17.9999 13 21.9506 13 21.9506" stroke="currentColor" stroke-width="1.5" stroke-linecap="round"
              stroke-linejoin="round"/>
        <path d="M11 21.9506C11 21.9506 8 17.9999 8 11.9999C8 5.99994 11 2.04932 11 2.04932" stroke="currentColor" stroke-width="1.5" stroke-linecap="round"
              stroke-linejoin="round"/>
        <path d="M2.62964 15.5H21.3704" stroke="currentColor" stroke-width="1.5" stroke-linecap="round" stroke-linejoin="round"/>
        <path d="M2.62964 8.5H21.3704" stroke="currentColor" stroke-width="1.5" stroke-linecap="round" stroke-linejoin="round"/>
    </svg>

    <svg id="love" viewBox="0 0 128 128"
         xmlns="http://www.w3.org/2000/svg"
         xmlns:xlink="http://www.w3.org/1999/xlink" aria-hidden="true" role="img" class="iconify iconify--noto" preserveAspectRatio="xMidYMid meet">
        <path d="M64.8 120.71c3.68 0 32.11-24.18 48.7-44.07c15.96-19.14 10.2-41.74 6.69-48.03c-4.15-7.43-56.94 17.01-56.94 17.01S14.07 17.99 10.39 23.99C5.4 32.13-1.59 53.54 12.52 73.45C27.5 94.6 60.85 120.71 64.8 120.71z"
              fill="#db0a28"></path>
        <path d="M64.55 114.2s52.26-38.68 56.75-62.3c4.25-22.37-4.45-33.22-15.16-38.45C78.99.19 65.29 26.21 64 26.21S49.95.14 23.7 11.42C9.24 17.63 3.18 34.53 8.91 53.57c8.41 27.94 55.64 60.63 55.64 60.63z"
              fill="#ff262e"></path>
    </svg>

    <svg id="Github" viewBox="0 0 20 20" version="1.1"
         xmlns="http://www.w3.org/2000/svg"
         xmlns:xlink="http://www.w3.org/1999/xlink">

        <defs>

        </defs>
        <g id="Page-1" stroke="none" stroke-width="1" fill="none" fill-rule="evenodd">
            <g id="Dribbble-Light-Preview" transform="translate(-140.000000, -7559.000000)" fill="currentColor">
                <g id="icons" transform="translate(56.000000, 160.000000)">
                    <path d="M94,7399 C99.523,7399 104,7403.59 104,7409.253 C104,7413.782 101.138,7417.624 97.167,7418.981 C96.66,7419.082 96.48,7418.762 96.48,7418.489 C96.48,7418.151 96.492,7417.047 96.492,7415.675 C96.492,7414.719 96.172,7414.095 95.813,7413.777 C98.04,7413.523 100.38,7412.656 100.38,7408.718 C100.38,7407.598 99.992,7406.684 99.35,7405.966 C99.454,7405.707 99.797,7404.664 99.252,7403.252 C99.252,7403.252 98.414,7402.977 96.505,7404.303 C95.706,7404.076 94.85,7403.962 94,7403.958 C93.15,7403.962 92.295,7404.076 91.497,7404.303 C89.586,7402.977 88.746,7403.252 88.746,7403.252 C88.203,7404.664 88.546,7405.707 88.649,7405.966 C88.01,7406.684 87.619,7407.598 87.619,7408.718 C87.619,7412.646 89.954,7413.526 92.175,7413.785 C91.889,7414.041 91.63,7414.493 91.54,7415.156 C90.97,7415.418 89.522,7415.871 88.63,7414.304 C88.63,7414.304 88.101,7413.319 87.097,7413.247 C87.097,7413.247 86.122,7413.234 87.029,7413.87 C87.029,7413.87 87.684,7414.185 88.139,7415.37 C88.139,7415.37 88.726,7417.2 91.508,7416.58 C91.513,7417.437 91.522,7418.245 91.522,7418.489 C91.522,7418.76 91.338,7419.077 90.839,7418.982 C86.865,7417.627 84,7413.783 84,7409.253 C84,7403.59 88.478,7399 94,7399"
                          id="github-[#142]">

                    </path>
                </g>
            </g>
        </g>
    </svg>

    <svg id="Linkedin" fill="currentColor" version="1.1"
         xmlns="http://www.w3.org/2000/svg"
         xmlns:xlink="http://www.w3.org/1999/xlink" viewBox="-271 283.9 256 235.1" xml:space="preserve">
        <g>
            <rect x="-264.4" y="359.3" width="49.9" height="159.7"/>
            <path d="M-240.5,283.9c-18.4,0-30.5,11.9-30.5,27.7c0,15.5,11.7,27.7,29.8,27.7h0.4c18.8,0,30.5-12.3,30.4-27.7
		C-210.8,295.8-222.1,283.9-240.5,283.9z"/>
            <path d="M-78.2,357.8c-28.6,0-46.5,15.6-49.8,26.6v-25.1h-56.1c0.7,13.3,0,159.7,0,159.7h56.1v-86.3c0-4.9-0.2-9.7,1.2-13.1
		c3.8-9.6,12.1-19.6,27-19.6c19.5,0,28.3,14.8,28.3,36.4V519h56.6v-88.8C-14.9,380.8-42.7,357.8-78.2,357.8z"/>
        </g>
    </svg>


    <svg id="Telegram" viewBox="0 0 48 48" fill="none"
         xmlns="http://www.w3.org/2000/svg">
        <path d="M41.4193 7.30899C41.4193 7.30899 45.3046 5.79399 44.9808 9.47328C44.8729 10.9883 43.9016 16.2908 43.1461 22.0262L40.5559 39.0159C40.5559 39.0159 40.3401 41.5048 38.3974 41.9377C36.4547 42.3705 33.5408 40.4227 33.0011 39.9898C32.5694 39.6652 24.9068 34.7955 22.2086 32.4148C21.4531 31.7655 20.5897 30.4669 22.3165 28.9519L33.6487 18.1305C34.9438 16.8319 36.2389 13.8019 30.8426 17.4812L15.7331 27.7616C15.7331 27.7616 14.0063 28.8437 10.7686 27.8698L3.75342 25.7055C3.75342 25.7055 1.16321 24.0823 5.58815 22.459C16.3807 17.3729 29.6555 12.1786 41.4193 7.30899Z"
              fill="currentColor"/>
    </svg>


    <svg id="arrow" viewBox="0 0 24 24" fill="none"
         xmlns="http://www.w3.org/2000/svg">
        <path d="M10 7L15 12L10 17" stroke="currentColor" stroke-width="1.5" stroke-linecap="round" stroke-linejoin="round"/>
    </svg>

    <svg id="eye_open" viewBox="0 0 24 24" fill="none"
         xmlns="http://www.w3.org/2000/svg">
        <path d="M12 5C5.63636 5 2 12 2 12C2 12 5.63636 19 12 19C18.3636 19 22 12 22 12C22 12 18.3636 5 12 5Z" stroke="currentColor" stroke-width="1.5"
              stroke-linecap="round" stroke-linejoin="round"/>
        <path d="M12 15C13.6569 15 15 13.6569 15 12C15 10.3431 13.6569 9 12 9C10.3431 9 9 10.3431 9 12C9 13.6569 10.3431 15 12 15Z" stroke="currentColor"
              stroke-width="1.5" stroke-linecap="round" stroke-linejoin="round"/>
    </svg>

    <svg id="eye_close" viewBox="0 0 24 24" fill="none"
         xmlns="http://www.w3.org/2000/svg">
        <path d="M22 12C22 12 21.3082 13.3317 20 14.8335M10 5.23552C10.3244 5.15822 10.6578 5.09828 11 5.05822C11.3254 5.02013 11.6588 5 12 5C14.8779 5 17.198 6.43162 18.8762 8M12 9C12.3506 9 12.6872 9.06015 13 9.17071C13.8524 9.47199 14.528 10.1476 14.8293 11C14.9398 11.3128 15 11.6494 15 12M3 3L21 21M12 15C11.6494 15 11.3128 14.9398 11 14.8293C10.1476 14.528 9.47202 13.8524 9.17073 13C9.11389 12.8392 9.07037 12.6721 9.0415 12.5M4.14701 9C3.83877 9.34451 3.56234 9.68241 3.31864 10C2.45286 11.1282 2 12 2 12C2 12 5.63636 19 12 19C12.3412 19 12.6746 18.9799 13 18.9418"
              stroke="currentColor" stroke-width="1.5" stroke-linecap="round" stroke-linejoin="round"/>
    </svg>

    <svg id="edu" viewBox="0 0 48 48" fill="none"
         xmlns="http://www.w3.org/2000/svg">
        <path d="M33.66 31.28C35 30.4 36.76 31.36 36.76 32.96V35.54C36.76 38.08 34.78 40.8 32.4 41.6L26.02 43.72C24.9 44.1 23.08 44.1 21.98 43.72L15.6 41.6C13.2 40.8 11.24 38.08 11.24 35.54V32.94C11.24 31.36 13 30.4 14.32 31.26L18.44 33.94C20.02 35 22.02 35.52 24.02 35.52C26.02 35.52 28.02 35 29.6 33.94L33.66 31.28Z"
              fill="currentColor"/>
        <path d="M39.96 12.92L27.98 5.06C25.82 3.64 22.26 3.64 20.1 5.06L8.06004 12.92C4.20004 15.42 4.20004 21.08 8.06004 23.6L11.26 25.68L20.1 31.44C22.26 32.86 25.82 32.86 27.98 31.44L36.76 25.68L39.5 23.88V30C39.5 30.82 40.18 31.5 41 31.5C41.82 31.5 42.5 30.82 42.5 30V20.16C43.3 17.58 42.48 14.58 39.96 12.92Z"
              fill="currentColor"/>
    </svg>

    <svg id="close" viewBox="0 0 24 24" fill="none"
         xmlns="http://www.w3.org/2000/svg">
        <g id="Menu / Close_LG">
            <path id="Vector" d="M21 21L12 12M12 12L3 3M12 12L21.0001 3M12 12L3 21.0001" stroke="currentColor" stroke-width="2" stroke-linecap="round"
                  stroke-linejoin="round"/>
        </g>
    </svg>

    <svg fill="currentColor" id="img" viewBox="0 0 32 32" version="1.1"
         xmlns="http://www.w3.org/2000/svg">
        <path d="M30 2.497h-28c-1.099 0-2 0.901-2 2v23.006c0 1.099 0.9 2 2 2h28c1.099 0 2-0.901 2-2v-23.006c0-1.099-0.901-2-2-2zM30 27.503l-28-0v-5.892l8.027-7.779 8.275 8.265c0.341 0.414 0.948 0.361 1.379 0.035l3.652-3.306 6.587 6.762c0.025 0.025 0.053 0.044 0.080 0.065v1.85zM30 22.806l-5.876-6.013c-0.357-0.352-0.915-0.387-1.311-0.086l-3.768 3.282-8.28-8.19c-0.177-0.214-0.432-0.344-0.709-0.363-0.275-0.010-0.547 0.080-0.749 0.27l-7.309 7.112v-14.322h28v18.309zM23 12.504c1.102 0 1.995-0.894 1.995-1.995s-0.892-1.995-1.995-1.995-1.995 0.894-1.995 1.995c0 1.101 0.892 1.995 1.995 1.995z"></path>
    </svg>

    <svg id="video" viewBox="0 0 24 24" fill="none"
         xmlns="http://www.w3.org/2000/svg">
        <path d="M16 10L18.5768 8.45392C19.3699 7.97803 19.7665 7.74009 20.0928 7.77051C20.3773 7.79703 20.6369 7.944 20.806 8.17433C21 8.43848 21 8.90095 21 9.8259V14.1741C21 15.099 21 15.5615 20.806 15.8257C20.6369 16.056 20.3773 16.203 20.0928 16.2295C19.7665 16.2599 19.3699 16.022 18.5768 15.5461L16 14M6.2 18H12.8C13.9201 18 14.4802 18 14.908 17.782C15.2843 17.5903 15.5903 17.2843 15.782 16.908C16 16.4802 16 15.9201 16 14.8V9.2C16 8.0799 16 7.51984 15.782 7.09202C15.5903 6.71569 15.2843 6.40973 14.908 6.21799C14.4802 6 13.9201 6 12.8 6H6.2C5.0799 6 4.51984 6 4.09202 6.21799C3.71569 6.40973 3.40973 6.71569 3.21799 7.09202C3 7.51984 3 8.07989 3 9.2V14.8C3 15.9201 3 16.4802 3.21799 16.908C3.40973 17.2843 3.71569 17.5903 4.09202 17.782C4.51984 18 5.07989 18 6.2 18Z"
              stroke="currentColor" stroke-width="2" stroke-linecap="round" stroke-linejoin="round"/>
    </svg>

    <svg id="play" viewBox="0 0 24 24" fill="none"
         xmlns="http://www.w3.org/2000/svg">
        <path d="M20.4086 9.35258C22.5305 10.5065 22.5305 13.4935 20.4086 14.6474L7.59662 21.6145C5.53435 22.736 3 21.2763 3 18.9671L3 5.0329C3 2.72368 5.53435 1.26402 7.59661 2.38548L20.4086 9.35258Z"
              stroke="currentColor" stroke-width="1.5"/>
    </svg>

    <svg id="pause" viewBox="0 0 24 24" fill="none"
         xmlns="http://www.w3.org/2000/svg">
        <path fill-rule="evenodd" clip-rule="evenodd"
              d="M5.948 1.25H6.052C6.95048 1.24997 7.6997 1.24995 8.29448 1.32991C8.92228 1.41432 9.48908 1.59999 9.94455 2.05546C10.4 2.51093 10.5857 3.07773 10.6701 3.70552C10.7501 4.30031 10.75 5.04953 10.75 5.94801V18.052C10.75 18.9505 10.7501 19.6997 10.6701 20.2945C10.5857 20.9223 10.4 21.4891 9.94455 21.9445C9.48908 22.4 8.92228 22.5857 8.29448 22.6701C7.6997 22.7501 6.95048 22.75 6.052 22.75H5.94801C5.04953 22.75 4.30031 22.7501 3.70552 22.6701C3.07773 22.5857 2.51093 22.4 2.05546 21.9445C1.59999 21.4891 1.41432 20.9223 1.32991 20.2945C1.24995 19.6997 1.24997 18.9505 1.25 18.052V5.948C1.24997 5.04952 1.24995 4.3003 1.32991 3.70552C1.41432 3.07773 1.59999 2.51093 2.05546 2.05546C2.51093 1.59999 3.07773 1.41432 3.70552 1.32991C4.3003 1.24995 5.04952 1.24997 5.948 1.25ZM3.90539 2.81654C3.44393 2.87858 3.24644 2.9858 3.11612 3.11612C2.9858 3.24644 2.87858 3.44393 2.81654 3.90539C2.7516 4.38843 2.75 5.03599 2.75 6V18C2.75 18.964 2.7516 19.6116 2.81654 20.0946C2.87858 20.5561 2.9858 20.7536 3.11612 20.8839C3.24644 21.0142 3.44393 21.1214 3.90539 21.1835C4.38843 21.2484 5.03599 21.25 6 21.25C6.96401 21.25 7.61157 21.2484 8.09461 21.1835C8.55607 21.1214 8.75357 21.0142 8.88389 20.8839C9.0142 20.7536 9.12143 20.5561 9.18347 20.0946C9.24841 19.6116 9.25 18.964 9.25 18V6C9.25 5.03599 9.24841 4.38843 9.18347 3.90539C9.12143 3.44393 9.0142 3.24644 8.88389 3.11612C8.75357 2.9858 8.55607 2.87858 8.09461 2.81654C7.61157 2.7516 6.96401 2.75 6 2.75C5.03599 2.75 4.38843 2.7516 3.90539 2.81654ZM17.948 1.25H18.052C18.9505 1.24997 19.6997 1.24995 20.2945 1.32991C20.9223 1.41432 21.4891 1.59999 21.9445 2.05546C22.4 2.51093 22.5857 3.07773 22.6701 3.70552C22.7501 4.30031 22.75 5.04953 22.75 5.94801V18.052C22.75 18.9505 22.7501 19.6997 22.6701 20.2945C22.5857 20.9223 22.4 21.4891 21.9445 21.9445C21.4891 22.4 20.9223 22.5857 20.2945 22.6701C19.6997 22.7501 18.9505 22.75 18.052 22.75H17.948C17.0495 22.75 16.3003 22.7501 15.7055 22.6701C15.0777 22.5857 14.5109 22.4 14.0555 21.9445C13.6 21.4891 13.4143 20.9223 13.3299 20.2945C13.2499 19.6997 13.25 18.9505 13.25 18.052V5.94801C13.25 5.04953 13.2499 4.30031 13.3299 3.70552C13.4143 3.07773 13.6 2.51093 14.0555 2.05546C14.5109 1.59999 15.0777 1.41432 15.7055 1.32991C16.3003 1.24995 17.0495 1.24997 17.948 1.25ZM15.9054 2.81654C15.4439 2.87858 15.2464 2.9858 15.1161 3.11612C14.9858 3.24644 14.8786 3.44393 14.8165 3.90539C14.7516 4.38843 14.75 5.03599 14.75 6V18C14.75 18.964 14.7516 19.6116 14.8165 20.0946C14.8786 20.5561 14.9858 20.7536 15.1161 20.8839C15.2464 21.0142 15.4439 21.1214 15.9054 21.1835C16.3884 21.2484 17.036 21.25 18 21.25C18.964 21.25 19.6116 21.2484 20.0946 21.1835C20.5561 21.1214 20.7536 21.0142 20.8839 20.8839C21.0142 20.7536 21.1214 20.5561 21.1835 20.0946C21.2484 19.6116 21.25 18.964 21.25 18V6C21.25 5.03599 21.2484 4.38843 21.1835 3.90539C21.1214 3.44393 21.0142 3.24644 20.8839 3.11612C20.7536 2.9858 20.5561 2.87858 20.0946 2.81654C19.6116 2.7516 18.964 2.75 18 2.75C17.036 2.75 16.3884 2.7516 15.9054 2.81654Z"
              fill="currentColor"/>
    </svg>

    <svg id="zoom" viewBox="0 0 24 24" fill="none"
         xmlns="http://www.w3.org/2000/svg">
        <path d="M10 17C13.866 17 17 13.866 17 10C17 6.13401 13.866 3 10 3C6.13401 3 3 6.13401 3 10C3 13.866 6.13401 17 10 17Z" stroke="currentColor"
              stroke-width="1.5" stroke-linecap="round" stroke-linejoin="round"/>
        <path d="M20.9992 21L14.9492 14.95" stroke="currentColor" stroke-width="1.5" stroke-linecap="round" stroke-linejoin="round"/>
        <path d="M6 10H14" stroke="currentColor" stroke-width="1.5" stroke-linecap="round" stroke-linejoin="round"/>
        <path d="M10 6V14" stroke="currentColor" stroke-width="1.5" stroke-linecap="round" stroke-linejoin="round"/>
    </svg>

    <svg id="phone" viewBox="0 0 39 39" fill="none"
         xmlns="http://www.w3.org/2000/svg">
        <path d="M1.77563 1.06549C1.77563 25.6719 13.3551 37.2513 37.9615 37.2513V25.6719L27.8294 22.777L24.9346 27.1193C19.1448 27.1193 11.9077 19.8821 11.9077 14.0924L16.25 11.1975L13.3551 1.06549H1.77563Z"
              stroke="currentColor" stroke-width="2.04344" stroke-linecap="round" stroke-linejoin="round"/>
    </svg>

    <svg id="location" viewBox="0 0 35 45" fill="none"
         xmlns="http://www.w3.org/2000/svg">
        <path d="M31.4008 17.9293C31.4008 14.2496 29.9391 10.7206 27.3372 8.11873C24.7353 5.51681 21.2063 4.05507 17.5267 4.05507C13.847 4.05507 10.3181 5.51681 7.71614 8.11873C5.11423 10.7206 3.65249 14.2496 3.65249 17.9293C3.65249 23.6208 8.2063 31.0388 17.5267 39.9245C26.847 31.0388 31.4008 23.6208 31.4008 17.9293ZM17.5267 44.136C6.22075 33.8599 0.569336 25.1222 0.569336 17.9293C0.569336 13.4319 2.35591 9.11873 5.53602 5.93861C8.71614 2.7585 13.0293 0.971924 17.5267 0.971924C22.024 0.971924 26.3372 2.7585 29.5173 5.93861C32.6974 9.11873 34.484 13.4319 34.484 17.9293C34.484 25.1222 28.8326 33.8599 17.5267 44.136Z"
              fill="currentColor"/>
        <path d="M17.5267 22.5539C18.7533 22.5539 19.9296 22.0667 20.7969 21.1994C21.6642 20.3321 22.1515 19.1557 22.1515 17.9292C22.1515 16.7026 21.6642 15.5263 20.7969 14.659C19.9296 13.7917 18.7533 13.3045 17.5267 13.3045C16.3002 13.3045 15.1239 13.7917 14.2565 14.659C13.3892 15.5263 12.902 16.7026 12.902 17.9292C12.902 19.1557 13.3892 20.3321 14.2565 21.1994C15.1239 22.0667 16.3002 22.5539 17.5267 22.5539ZM17.5267 25.6371C15.4825 25.6371 13.5219 24.825 12.0764 23.3795C10.6309 21.934 9.81885 19.9734 9.81885 17.9292C9.81885 15.8849 10.6309 13.9244 12.0764 12.4789C13.5219 11.0334 15.4825 10.2213 17.5267 10.2213C19.571 10.2213 21.5315 11.0334 22.977 12.4789C24.4225 13.9244 25.2346 15.8849 25.2346 17.9292C25.2346 19.9734 24.4225 21.934 22.977 23.3795C21.5315 24.825 19.571 25.6371 17.5267 25.6371Z"
              fill="currentColor"/>
    </svg>

    <svg id="mail" viewBox="0 0 32 32" fill="none"
         xmlns="http://www.w3.org/2000/svg">
        <path d="M29 9V23C29 23.5304 28.7893 24.0391 28.4142 24.4142C28.0391 24.7893 27.5304 25 27 25H5C4.46957 25 3.96086 24.7893 3.58579 24.4142C3.21071 24.0391 3 23.5304 3 23V9M29 9C29 8.46957 28.7893 7.96086 28.4142 7.58579C28.0391 7.21071 27.5304 7 27 7H5C4.46957 7 3.96086 7.21071 3.58579 7.58579C3.21071 7.96086 3 8.46957 3 9M29 9L17.138 17.212C16.8036 17.4434 16.4066 17.5673 16 17.5673C15.5934 17.5673 15.1964 17.4434 14.862 17.212L3 9"
              stroke="currentColor" stroke-width="2" stroke-linecap="round" stroke-linejoin="round"/>
    </svg>

    <svg id="send" viewBox="0 0 14 14" fill="none"
         xmlns="http://www.w3.org/2000/svg">
        <g clip-path="url(#clip0_244_16)">
            <path d="M3.57 8.7399L0.830005 5.9999C0.70108 5.87111 0.606171 5.7123 0.553807 5.53776C0.501443 5.36321 0.493264 5.17839 0.530005 4.9999C0.5656 4.80364 0.652959 4.62046 0.783053 4.46926C0.913147 4.31807 1.08126 4.20437 1.27 4.1399L12 0.559898C12.2011 0.485183 12.4193 0.469768 12.6289 0.515484C12.8384 0.5612 13.0305 0.666125 13.1821 0.817787C13.3338 0.969449 13.4387 1.16147 13.4844 1.37102C13.5301 1.58058 13.5147 1.79885 13.44 1.9999L9.86 12.7299C9.7998 12.9124 9.69367 13.0763 9.55182 13.2059C9.40996 13.3355 9.23716 13.4264 9.05 13.4699C8.86402 13.5156 8.66931 13.512 8.48515 13.4594C8.30099 13.4068 8.13376 13.307 8 13.1699L5.82 10.9999L3.48 12.2099L3.57 8.7399ZM3.57 8.7399L13.12 0.779898"
                  stroke="currentColor" stroke-linecap="round" stroke-linejoin="round"/>
        </g>
        <defs>
            <clipPath id="clip0_244_16">
                <rect width="14" height="14" fill="transparent"/>
            </clipPath>
        </defs>
    </svg>

    <svg id="subject" viewBox="-39.34 0 230.34 230.34"
         xmlns="http://www.w3.org/2000/svg">
        <g id="Layer_2" data-name="Layer 2">

            <g id="Layer_1-2" data-name="Layer 1">

                <path d="M92.17,118.09c-.87,3-2,5.42-2.19,7.88-.73,9.66-2.85,19.27-1,29.06.62,3.32-.43,4.7-3.49,6a19.65,19.65,0,0,1-4.08,1.26,62.72,62.72,0,0,1-28.93-.9,46.2,46.2,0,0,1-7.8-3.54c-3.16-1.56-4.35-4.18-4.37-7.7,0-13.46-.53-26.91-.26-40.36.13-6.54,1.4-13.07,2.45-19.56A31.16,31.16,0,0,1,48,77.63c4.15-1.38,8.45-.92,12.7-.86a83.38,83.38,0,0,0,23.79-3c3.65-1,6.89-2.76,9-6.16a9.27,9.27,0,0,0,.49-9.74C89.2,48.57,82,44.93,72,47.79c-14.47,4.13-25.56,12.5-31.67,26.72-2.92,6.8-5,7.77-11.79,5.93a16.71,16.71,0,0,1-4.79-1.84C16.57,73.9,9.43,69.14,2.39,64.23.1,62.64-.4,60.33.28,57.41a34.36,34.36,0,0,1,6.2-13.08A152.75,152.75,0,0,1,41.1,11.24C48.57,6,57.21,4,65.89,2.08,76.63-.3,87.27-.87,98.22,1.6A52.15,52.15,0,0,1,126,17.54c4.64,5.06,9,10.39,13.23,15.81a59.23,59.23,0,0,1,11.09,24.82c4.65,22.12-3.36,39.08-20.11,53-6.1,5.06-13.15,6.7-20.74,6.89C104.06,118.2,98.63,118.09,92.17,118.09Zm-12.63,35.2c.24-1.8.58-3.73.74-5.68.5-6,.79-12,1.45-18,.56-5.12,1.56-10.19,2.28-15.29.43-3,2.27-4.54,5-5a25.09,25.09,0,0,1,5.11-.44c5.16.12,10.31.29,15.45.6a19.35,19.35,0,0,0,10-1.67c10.44-5.26,18.35-13,21.34-24.48,2.56-9.8,2.67-19.8-1.26-29.54a59.65,59.65,0,0,0-8.88-15.6c-3.81-4.66-7.39-9.52-11.42-14-6.26-6.9-13.68-12.07-23-14.34C79.58,5.71,63.56,8.48,48.09,15.8a31,31,0,0,0-4.32,2.8C32.19,26.74,22.38,36.75,13.49,47.66c-2.29,2.81-4.82,5.72-4.93,9.64A68.21,68.21,0,0,0,32.27,73.21l4.27-7.15c3.4-5.68,7-11.24,12.52-15.09,8.08-5.64,17-9.86,26.67-11.32,13.48-2,23.84,4.81,27.91,19.59a14.25,14.25,0,0,1-.76,9.28C100.34,74.66,96.25,79,89.71,81.09a68.91,68.91,0,0,1-21.95,3.45c-4.51,0-9.07-.48-13.29.43-3.58,5-4,10.56-4.28,16-.72,13.39-1.19,26.79-1.67,40.19A56.2,56.2,0,0,0,49,147.5C59.45,154.9,67.7,156.45,79.54,153.29Z"/>

                <path d="M65,230.31a27.48,27.48,0,0,1-26.76-17.82,20.66,20.66,0,0,1-1.56-10.07c1.21-9.33,4.72-17.43,11.77-24.13,6.5-6.19,13.47-7.72,22-5.49,5.61,1.47,11.06,2.83,15.42,6.95,6.45,6.08,9.93,13.2,8.3,22.27-.25,1.41-.38,2.84-.62,4.25C90.9,221.87,80.84,230.33,65,230.31ZM66.79,222a38.22,38.22,0,0,0,5.94-1.33c7.75-2.77,14.61-13.85,13.67-21.93a16.51,16.51,0,0,0-1.31-4c-4-10.17-12.6-13.4-22.46-14.34A9,9,0,0,0,57,181.82c-6,4.3-10.38,10.17-11.58,17.39C43.44,211.17,53.14,222.26,66.79,222Z"/>

                <path fill="currentColor"
                      d="M79.54,153.29C67.7,156.45,59.45,154.9,49,147.5a56.2,56.2,0,0,1-.43-6.38c.48-13.4.95-26.8,1.67-40.19.3-5.4.7-10.91,4.28-16,4.22-.91,8.78-.45,13.29-.43a68.91,68.91,0,0,0,21.95-3.45c6.54-2.14,10.63-6.43,13.17-12.57a14.25,14.25,0,0,0,.76-9.28C99.57,44.46,89.21,37.61,75.73,39.65,66,41.11,57.14,45.33,49.06,51c-5.53,3.85-9.12,9.41-12.52,15.09l-4.27,7.15A68.21,68.21,0,0,1,8.56,57.3c.11-3.92,2.64-6.83,4.93-9.64,8.89-10.91,18.7-20.92,30.28-29.06a31,31,0,0,1,4.32-2.8C63.56,8.48,79.58,5.71,96.5,9.87c9.27,2.27,16.69,7.44,23,14.34,4,4.44,7.61,9.3,11.42,14a59.65,59.65,0,0,1,8.88,15.6c3.93,9.74,3.82,19.74,1.26,29.54-3,11.45-10.9,19.22-21.34,24.48a19.35,19.35,0,0,1-10,1.67c-5.14-.31-10.29-.48-15.45-.6a25.09,25.09,0,0,0-5.11.44c-2.78.5-4.62,2-5,5-.72,5.1-1.72,10.17-2.28,15.29-.66,6-1,12-1.45,18C80.12,149.56,79.78,151.49,79.54,153.29Z"/>

                <path fill="currentColor"
                      d="M66.79,222c-13.65.28-23.35-10.81-21.37-22.77C46.62,192,51,186.12,57,181.82a9,9,0,0,1,5.63-1.47c9.86.94,18.43,4.17,22.46,14.34a16.51,16.51,0,0,1,1.31,4c.94,8.08-5.92,19.16-13.67,21.93A38.22,38.22,0,0,1,66.79,222Z"/>

            </g>

        </g>

    </svg>

    <svg id="error" viewBox="0 0 24 24" fill="none"
         xmlns="http://www.w3.org/2000/svg">
        <path fill-rule="evenodd" clip-rule="evenodd"
              d="M12 22c5.523 0 10-4.477 10-10S17.523 2 12 2 2 6.477 2 12s4.477 10 10 10zm-1.5-5.009c0-.867.659-1.491 1.491-1.491.85 0 1.509.624 1.509 1.491 0 .867-.659 1.509-1.509 1.509-.832 0-1.491-.642-1.491-1.509zM11.172 6a.5.5 0 0 0-.499.522l.306 7a.5.5 0 0 0 .5.478h1.043a.5.5 0 0 0 .5-.478l.305-7a.5.5 0 0 0-.5-.522h-1.655z"
              fill="currentColor"/>
    </svg>

    <svg id="blog" viewBox="0 0 24 24" fill="none" xmlns="http://www.w3.org/2000/svg">
        <path d="M9 3V21M7.8 3H16.2C17.8802 3 18.7202 3 19.362 3.32698C19.9265 3.6146 20.3854 4.07354 20.673 4.63803C21 5.27976 21 6.11984 21 7.8V16.2C21 17.8802 21 18.7202 20.673 19.362C20.3854 19.9265 19.9265 20.3854 19.362 20.673C18.7202 21 17.8802 21 16.2 21H7.8C6.11984 21 5.27976 21 4.63803 20.673C4.07354 20.3854 3.6146 19.9265 3.32698 19.362C3 18.7202 3 17.8802 3 16.2V7.8C3 6.11984 3 5.27976 3.32698 4.63803C3.6146 4.07354 4.07354 3.6146 4.63803 3.32698C5.27976 3 6.11984 3 7.8 3Z"
              stroke="currentColor" stroke-width="2" stroke-linecap="round" stroke-linejoin="round"/>
    </svg>

    <svg id="link" viewBox="0 0 24 24" fill="none" xmlns="http://www.w3.org/2000/svg">
        <path d="M15.197 3.35462C16.8703 1.67483 19.4476 1.53865 20.9536 3.05046C22.4596 4.56228 22.3239 7.14956 20.6506 8.82935L18.2268 11.2626M10.0464 14C8.54044 12.4882 8.67609 9.90087 10.3494 8.22108L12.5 6.06212"
              stroke="currentColor" stroke-width="1.5" stroke-linecap="round"/>
        <path d="M13.9536 10C15.4596 11.5118 15.3239 14.0991 13.6506 15.7789L11.2268 18.2121L8.80299 20.6454C7.12969 22.3252 4.55237 22.4613 3.0464 20.9495C1.54043 19.4377 1.67609 16.8504 3.34939 15.1706L5.77323 12.7373"
              stroke="currentColor" stroke-width="1.5" stroke-linecap="round"/>
    </svg>

    <svg id="clock" viewBox="0 0 24 24" fill="none" xmlns="http://www.w3.org/2000/svg">
        <path d="M12 21C16.9706 21 21 16.9706 21 12C21 7.02944 16.9706 3 12 3C7.02944 3 3 7.02944 3 12C3 16.9706 7.02944 21 12 21Z" stroke="currentColor"
              stroke-width="1.5" stroke-linecap="round" stroke-linejoin="round"/>
        <path d="M12 6V12" stroke="currentColor" stroke-width="1.5" stroke-linecap="round" stroke-linejoin="round"/>
        <path d="M16.24 16.24L12 12" stroke="currentColor" stroke-width="1.5" stroke-linecap="round" stroke-linejoin="round"/>
    </svg>
</svg>