<svg viewBox="0 0 28 28" fill="none" xmlns="http://www.w3.org/2000/svg"> <path d="M21.1468 16.143H18.9274C18.7934 16.143 18.6624 16.1828 18.551 16.2573L15.8909 18.0378C15.4848 18.3085 15.0111 18.4326 14.5487 18.4326C14.1539 18.4326 13.7592 18.3424 13.3983 18.1393C12.7569 17.8003 12.3165 17.1264 12.1738 16.4077C12.1155 16.1139 11.9252 15.8517 11.647 15.7408C11.0052 15.4851 10.4305 15.1152 9.95826 14.6429C8.98829 13.673 8.45819 12.3082 8.45819 10.7856V6.38689V5.65377C8.45819 5.28003 8.15521 4.97705 7.78146 4.97705H7.33031C4.28506 4.97705 2.25488 6.49968 2.25488 10.0525V16.143C2.25488 19.6958 4.28506 21.2184 7.33031 21.2184H11.5598V24.4329H8.3454C7.88297 24.4329 7.4995 24.8163 7.4995 25.2788C7.4995 25.7412 7.88297 26.1247 8.3454 26.1247H16.4661C16.9285 26.1247 17.312 25.7412 17.312 25.2788C17.312 24.8163 16.9285 24.4329 16.4661 24.4329H13.2516V21.2184H17.4812C20.3256 21.2184 22.2844 19.89 22.5304 16.8196C22.5603 16.447 22.2536 16.143 21.8799 16.143H21.1468Z" fill="currentColor"/> <path d="M21.1462 2.72131H13.815C12.1345 2.72131 10.8713 3.5785 10.375 4.97706C10.2284 5.40565 10.1494 5.87936 10.1494 6.3869V10.7856C10.1494 11.8796 10.5103 12.8045 11.1532 13.4474C11.7961 14.0903 12.721 14.4512 13.815 14.4512V16.0189C13.815 16.5942 14.4692 16.9438 14.9542 16.628L18.2137 14.4512H21.1462C21.6537 14.4512 22.1274 14.3722 22.556 14.2256C23.9546 13.7294 24.8118 12.4661 24.8118 10.7856V6.3869C24.8118 4.18755 23.3455 2.72131 21.1462 2.72131ZM14.2323 9.48855C13.7586 9.48855 13.3864 9.10508 13.3864 8.64265C13.3864 8.18022 13.7586 7.79674 14.2323 7.79674C14.706 7.79674 15.0782 8.18022 15.0782 8.64265C15.0782 9.10508 14.706 9.48855 14.2323 9.48855ZM17.4129 9.48855C16.9392 9.48855 16.567 9.10508 16.567 8.64265C16.567 8.18022 16.9505 7.79674 17.4129 7.79674C17.8753 7.79674 18.2588 8.18022 18.2588 8.64265C18.2588 9.10508 17.8753 9.48855 17.4129 9.48855ZM20.5822 9.48855C20.1085 9.48855 19.7363 9.10508 19.7363 8.64265C19.7363 8.18022 20.1198 7.79674 20.5822 7.79674C21.0447 7.79674 21.4282 8.18022 21.4282 8.64265C21.4282 9.10508 21.0447 9.48855 20.5822 9.48855Z" fill="currentColor"/> <path d="M24.8118 6.3869V10.7856C24.8118 12.4661 23.9546 13.7294 22.556 14.2256C22.1274 14.3722 21.6537 14.4512 21.1462 14.4512H18.2137L14.9542 16.628C14.4692 16.9438 13.815 16.5942 13.815 16.0189V14.4512C12.721 14.4512 11.7961 14.0903 11.1532 13.4474C10.5103 12.8045 10.1494 11.8796 10.1494 10.7856V6.3869C10.1494 5.87936 10.2284 5.40565 10.375 4.97706C10.8713 3.5785 12.1345 2.72131 13.815 2.72131H21.1462C23.3455 2.72131 24.8118 4.18755 24.8118 6.3869Z" fill="currentColor"/> </svg>