<svg viewBox="0 0 48 48" fill="none" xmlns="http://www.w3.org/2000/svg"> <path d="M33.66 31.28C35 30.4 36.76 31.36 36.76 32.96V35.54C36.76 38.08 34.78 40.8 32.4 41.6L26.02 43.72C24.9 44.1 23.08 44.1 21.98 43.72L15.6 41.6C13.2 40.8 11.24 38.08 11.24 35.54V32.94C11.24 31.36 13 30.4 14.32 31.26L18.44 33.94C20.02 35 22.02 35.52 24.02 35.52C26.02 35.52 28.02 35 29.6 33.94L33.66 31.28Z" fill="currentColor"/> <path d="M39.96 12.92L27.98 5.06C25.82 3.64 22.26 3.64 20.1 5.06L8.06004 12.92C4.20004 15.42 4.20004 21.08 8.06004 23.6L11.26 25.68L20.1 31.44C22.26 32.86 25.82 32.86 27.98 31.44L36.76 25.68L39.5 23.88V30C39.5 30.82 40.18 31.5 41 31.5C41.82 31.5 42.5 30.82 42.5 30V20.16C43.3 17.58 42.48 14.58 39.96 12.92Z" fill="currentColor"/> </svg>