<svg viewBox="0 0 28 28" fill="none" xmlns="http://www.w3.org/2000/svg"> <path d="M22.6023 7.6921L16.1057 3.14677C14.3349 1.90611 11.6168 1.97378 9.91368 3.2934L4.26303 7.70338C3.13516 8.58312 2.24414 10.3877 2.24414 11.8088V19.5912C2.24414 22.4672 4.57884 24.8132 7.45492 24.8132H19.6134C22.4895 24.8132 24.8242 22.4785 24.8242 19.6024V11.9555C24.8242 10.4328 23.8429 8.56057 22.6023 7.6921ZM14.3801 20.3017C14.3801 20.7642 13.9966 21.1476 13.5342 21.1476C13.0717 21.1476 12.6883 20.7642 12.6883 20.3017V16.9181C12.6883 16.4557 13.0717 16.0722 13.5342 16.0722C13.9966 16.0722 14.3801 16.4557 14.3801 16.9181V20.3017Z" fill="currentColor"/> </svg>