<svg viewBox="0 0 35 45" fill="none" xmlns="http://www.w3.org/2000/svg"> <path d="M31.4008 17.9293C31.4008 14.2496 29.9391 10.7206 27.3372 8.11873C24.7353 5.51681 21.2063 4.05507 17.5267 4.05507C13.847 4.05507 10.3181 5.51681 7.71614 8.11873C5.11423 10.7206 3.65249 14.2496 3.65249 17.9293C3.65249 23.6208 8.2063 31.0388 17.5267 39.9245C26.847 31.0388 31.4008 23.6208 31.4008 17.9293ZM17.5267 44.136C6.22075 33.8599 0.569336 25.1222 0.569336 17.9293C0.569336 13.4319 2.35591 9.11873 5.53602 5.93861C8.71614 2.7585 13.0293 0.971924 17.5267 0.971924C22.024 0.971924 26.3372 2.7585 29.5173 5.93861C32.6974 9.11873 34.484 13.4319 34.484 17.9293C34.484 25.1222 28.8326 33.8599 17.5267 44.136Z" fill="currentColor"/> <path d="M17.5267 22.5539C18.7533 22.5539 19.9296 22.0667 20.7969 21.1994C21.6642 20.3321 22.1515 19.1557 22.1515 17.9292C22.1515 16.7026 21.6642 15.5263 20.7969 14.659C19.9296 13.7917 18.7533 13.3045 17.5267 13.3045C16.3002 13.3045 15.1239 13.7917 14.2565 14.659C13.3892 15.5263 12.902 16.7026 12.902 17.9292C12.902 19.1557 13.3892 20.3321 14.2565 21.1994C15.1239 22.0667 16.3002 22.5539 17.5267 22.5539ZM17.5267 25.6371C15.4825 25.6371 13.5219 24.825 12.0764 23.3795C10.6309 21.934 9.81885 19.9734 9.81885 17.9292C9.81885 15.8849 10.6309 13.9244 12.0764 12.4789C13.5219 11.0334 15.4825 10.2213 17.5267 10.2213C19.571 10.2213 21.5315 11.0334 22.977 12.4789C24.4225 13.9244 25.2346 15.8849 25.2346 17.9292C25.2346 19.9734 24.4225 21.934 22.977 23.3795C21.5315 24.825 19.571 25.6371 17.5267 25.6371Z" fill="currentColor"/> </svg>