<svg viewBox="0 0 22 26" fill="none" xmlns="http://www.w3.org/2000/svg"> <path d="M21.0305 6.4227C21.2117 6.5936 21.3145 6.82432 21.3145 7.06643V24.6322C21.3145 25.1364 20.8824 25.5437 20.3477 25.5437H1.01172C0.476959 25.5437 0.0449219 25.1364 0.0449219 24.6322V0.933932C0.0449219 0.429775 0.476959 0.0224609 1.01172 0.0224609H13.8429C14.0997 0.0224609 14.3475 0.119305 14.5287 0.290206L21.0305 6.4227ZM19.0848 7.48513L13.3988 2.12454V7.48513H19.0848ZM14.342 16.3509C13.8834 16.3367 13.3958 16.37 12.842 16.4352C12.1078 16.0082 11.6136 15.4218 11.2625 14.5601L11.2948 14.4354L11.3323 14.2878C11.4622 13.7714 11.532 13.3946 11.5528 13.0146C11.5685 12.7278 11.5516 12.4632 11.4975 12.2179C11.3978 11.6884 11.0005 11.3788 10.4999 11.3597C10.0331 11.3418 9.60413 11.5876 9.49445 11.9684C9.3159 12.5842 9.42043 13.3946 9.799 14.7766C9.31681 15.8604 8.67963 17.1311 8.25212 17.8397C7.68141 18.1172 7.23698 18.3695 6.86356 18.6492C6.3711 19.0187 6.06353 19.3984 5.97894 19.7971C5.93785 19.982 5.99979 20.2235 6.14088 20.4215C6.301 20.6459 6.5421 20.7918 6.83123 20.8128C7.56086 20.8661 8.45757 20.1569 9.44763 18.5552C9.54702 18.5239 9.65216 18.4909 9.78057 18.4499L10.1401 18.3353C10.3676 18.263 10.5326 18.2112 10.6957 18.1613C11.4027 17.9443 11.9374 17.8073 12.4238 17.7292C13.2692 18.1559 14.2463 18.4356 14.9043 18.4356C15.4475 18.4356 15.8146 18.1701 15.9472 17.7523C16.0635 17.3854 15.9714 16.9599 15.7212 16.7246C15.4626 16.4851 14.9871 16.3706 14.342 16.3509ZM6.84966 20.0088V19.9985L6.85359 19.9888C6.89779 19.8811 6.95454 19.7783 7.02278 19.6823C7.15209 19.4949 7.33004 19.2978 7.55059 19.0879C7.66902 18.9754 7.79229 18.8657 7.93701 18.7427C7.96933 18.7153 8.17599 18.5419 8.21466 18.5077L8.55213 18.2114L8.30681 18.5797C7.93459 19.1392 7.59802 19.5419 7.3098 19.8045C7.20375 19.9014 7.11039 19.9726 7.03486 20.0184C7.00993 20.0341 6.98354 20.0477 6.95601 20.0589C6.94362 20.0637 6.93274 20.0666 6.92187 20.0674C6.91039 20.0688 6.89872 20.0673 6.88803 20.0632C6.87666 20.0587 6.86695 20.0511 6.86012 20.0414C6.8533 20.0317 6.84966 20.0204 6.84966 20.0088ZM10.6546 13.7914L10.5863 13.9053L10.544 13.7806C10.4504 13.5006 10.3815 13.0787 10.3625 12.6982C10.3407 12.2652 10.3773 12.0055 10.5223 12.0055C10.7259 12.0055 10.8193 12.3131 10.8265 12.7759C10.8332 13.1827 10.7652 13.606 10.6543 13.7914H10.6546ZM10.4791 15.4565L10.5253 15.3412L10.5884 15.4494C10.9416 16.0544 11.4 16.5591 11.9039 16.9109L12.0127 16.9867L11.88 17.0123C11.3867 17.1086 10.9271 17.2533 10.2987 17.4922C10.3643 17.4672 9.64552 17.7446 9.46364 17.8104L9.30502 17.8676L9.38962 17.7287C9.76274 17.1163 10.1075 16.3808 10.4788 15.4565H10.4791ZM15.2412 17.6287C15.0037 17.717 14.4925 17.6381 13.5925 17.2758L13.3641 17.184L13.6118 17.167C14.3158 17.1177 14.8143 17.1541 15.1049 17.2544C15.2288 17.2971 15.3112 17.351 15.3478 17.4125C15.367 17.4416 15.3735 17.4766 15.3658 17.5102C15.3582 17.5437 15.337 17.5731 15.3067 17.5922C15.2875 17.6082 15.2653 17.6205 15.2412 17.6287Z" fill="currentColor"/> </svg>