<svg viewBox="0 0 14 14" fill="none" xmlns="http://www.w3.org/2000/svg"> <g clip-path="url(#clip0_244_16)"> <path d="M3.57 8.7399L0.830005 5.9999C0.70108 5.87111 0.606171 5.7123 0.553807 5.53776C0.501443 5.36321 0.493264 5.17839 0.530005 4.9999C0.5656 4.80364 0.652959 4.62046 0.783053 4.46926C0.913147 4.31807 1.08126 4.20437 1.27 4.1399L12 0.559898C12.2011 0.485183 12.4193 0.469768 12.6289 0.515484C12.8384 0.5612 13.0305 0.666125 13.1821 0.817787C13.3338 0.969449 13.4387 1.16147 13.4844 1.37102C13.5301 1.58058 13.5147 1.79885 13.44 1.9999L9.86 12.7299C9.7998 12.9124 9.69367 13.0763 9.55182 13.2059C9.40996 13.3355 9.23716 13.4264 9.05 13.4699C8.86402 13.5156 8.66931 13.512 8.48515 13.4594C8.30099 13.4068 8.13376 13.307 8 13.1699L5.82 10.9999L3.48 12.2099L3.57 8.7399ZM3.57 8.7399L13.12 0.779898" stroke="currentColor" stroke-linecap="round" stroke-linejoin="round"/> </g> <defs> <clipPath > <rect width="14" height="14" fill="transparent"/> </clipPath> </defs> </svg>