<svg viewBox="0 0 28 28" fill="none" xmlns="http://www.w3.org/2000/svg"> <path d="M25.1405 14.0001C25.1405 7.78547 20.0763 2.72131 13.8617 2.72131C7.64716 2.72131 2.58301 7.78547 2.58301 14.0001C2.58301 17.2709 3.99285 20.2146 6.22604 22.2786C6.22604 22.2899 6.22604 22.2899 6.21476 22.3012C6.32755 22.414 6.46289 22.5042 6.57568 22.6057C6.64335 22.6621 6.69975 22.7185 6.76742 22.7636C6.97044 22.9328 7.19601 23.0907 7.41031 23.2486C7.48926 23.305 7.55693 23.3501 7.63588 23.4065C7.85018 23.5531 8.07575 23.6885 8.31261 23.8126C8.39156 23.8577 8.48179 23.9141 8.56074 23.9592C8.78631 24.0832 9.02317 24.196 9.2713 24.2975C9.36153 24.3427 9.45176 24.3878 9.54199 24.4216C9.79012 24.5231 10.0383 24.6133 10.2864 24.6923C10.3766 24.7261 10.4668 24.76 10.5571 24.7825C10.8278 24.8615 11.0985 24.9291 11.3691 24.9968C11.4481 25.0194 11.527 25.0419 11.6173 25.0532C11.9331 25.1209 12.2489 25.166 12.576 25.1998C12.6211 25.1998 12.6662 25.2111 12.7113 25.2224C13.0948 25.2562 13.4783 25.2788 13.8617 25.2788C14.2452 25.2788 14.6287 25.2562 15.0009 25.2224C15.046 25.2224 15.0911 25.2111 15.1362 25.1998C15.4633 25.166 15.7791 25.1209 16.0949 25.0532C16.1739 25.0419 16.2528 25.0081 16.3431 24.9968C16.6138 24.9291 16.8957 24.8728 17.1551 24.7825C17.2454 24.7487 17.3356 24.7148 17.4258 24.6923C17.674 24.6021 17.9334 24.5231 18.1702 24.4216C18.2605 24.3878 18.3507 24.3427 18.4409 24.2975C18.6778 24.196 18.9146 24.0832 19.1515 23.9592C19.2417 23.9141 19.3207 23.8577 19.3996 23.8126C19.6252 23.6772 19.8508 23.5531 20.0763 23.4065C20.1553 23.3614 20.223 23.305 20.3019 23.2486C20.5275 23.0907 20.7418 22.9328 20.9448 22.7636C21.0125 22.7072 21.0689 22.6508 21.1365 22.6057C21.2606 22.5042 21.3847 22.4027 21.4974 22.3012C21.4974 22.2899 21.4974 22.2899 21.4862 22.2786C23.7306 20.2146 25.1405 17.2709 25.1405 14.0001ZM19.4334 19.6056C16.3769 17.5529 11.3691 17.5529 8.29005 19.6056C7.79378 19.9327 7.38775 20.3161 7.04939 20.7335C5.33502 18.9965 4.27482 16.6167 4.27482 14.0001C4.27482 8.71032 8.57202 4.41312 13.8617 4.41312C19.1515 4.41312 23.4487 8.71032 23.4487 14.0001C23.4487 16.6167 22.3885 18.9965 20.6741 20.7335C20.347 20.3161 19.9297 19.9327 19.4334 19.6056Z" fill="currentColor"/> <path d="M13.8614 8.28174C11.5267 8.28174 9.63184 10.1766 9.63184 12.5113C9.63184 14.8008 11.4252 16.6618 13.805 16.7295C13.8388 16.7295 13.8839 16.7295 13.9065 16.7295C13.929 16.7295 13.9629 16.7295 13.9854 16.7295C13.9967 16.7295 14.008 16.7295 14.008 16.7295C16.2863 16.6506 18.0796 14.8008 18.0909 12.5113C18.0909 10.1766 16.1961 8.28174 13.8614 8.28174Z" fill="currentColor"/> </svg>